<svg width="26" height="26" viewBox="0 0 26 26" fill="none" xmlns="http://www.w3.org/2000/svg">
<title id="title">Arrows</title>
<path d="M13.6319 0.745324C13.4366 0.550061 13.12 0.550061 12.9248 0.745324L9.74279 3.9273C9.54752 4.12257 9.54752 4.43915 9.74279 4.63441C9.93805 4.82967 10.2546 4.82967 10.4499 4.63441L13.2783 1.80598L16.1067 4.63441C16.302 4.82967 16.6186 4.82967 16.8139 4.63441C17.0091 4.43915 17.0091 4.12257 16.8139 3.9273L13.6319 0.745324ZM12.9248 25.4876C13.12 25.6829 13.4366 25.6829 13.6319 25.4876L16.8139 22.3056C17.0091 22.1104 17.0091 21.7938 16.8139 21.5985C16.6186 21.4033 16.302 21.4033 16.1067 21.5985L13.2783 24.427L10.4499 21.5985C10.2546 21.4033 9.93805 21.4033 9.74279 21.5985C9.54752 21.7938 9.54752 22.1104 9.74279 22.3056L12.9248 25.4876ZM12.7783 1.09888V25.1341H13.7783V1.09888H12.7783Z" fill="black"/>
<path d="M25.6475 13.47C25.8428 13.2747 25.8428 12.9582 25.6475 12.7629L22.4655 9.58092C22.2703 9.38566 21.9537 9.38566 21.7584 9.58092C21.5631 9.77618 21.5631 10.0928 21.7584 10.288L24.5868 13.1165L21.7584 15.9449C21.5631 16.1401 21.5631 16.4567 21.7584 16.652C21.9537 16.8473 22.2703 16.8473 22.4655 16.652L25.6475 13.47ZM0.905201 12.7629C0.709938 12.9582 0.709938 13.2747 0.905201 13.47L4.08718 16.652C4.28244 16.8473 4.59903 16.8473 4.79429 16.652C4.98955 16.4567 4.98955 16.1401 4.79429 15.9449L1.96586 13.1165L4.79429 10.288C4.98955 10.0928 4.98955 9.77618 4.79429 9.58092C4.59903 9.38566 4.28244 9.38566 4.08718 9.58092L0.905201 12.7629ZM25.2939 12.6165L1.25875 12.6165L1.25875 13.6165L25.2939 13.6165L25.2939 12.6165Z" fill="black"/>
</svg>
