
<svg width="29" height="22" viewBox="0 0 29 22" fill="none" xmlns="http://www.w3.org/2000/svg">
<title id="title">Screen Capture</title>
<path fill-rule="evenodd" clip-rule="evenodd" d="M14.4668 0.225586C13.7635 0.225586 13.0661 0.349493 12.4139 0.591257C11.7617 0.83303 11.1658 1.18861 10.6613 1.64006C10.1568 2.09161 9.7532 2.63071 9.47665 3.22824C9.34402 3.5148 9.24202 3.81175 9.17178 4.11499H2.86719C1.76262 4.11499 0.867188 5.01042 0.867188 6.11499V19.8425C0.867188 20.9471 1.76262 21.8425 2.86719 21.8425H26.5007C27.6052 21.8425 28.5007 20.9471 28.5007 19.8425V6.11499C28.5007 5.01042 27.6052 4.11499 26.5007 4.11499H19.7618C19.6915 3.81175 19.5895 3.5148 19.4569 3.22824C19.1803 2.63071 18.7767 2.09161 18.2722 1.64006C17.7677 1.18861 17.1718 0.83303 16.5196 0.591257C15.8674 0.349493 15.17 0.225586 14.4668 0.225586ZM19.8769 5.11499C19.8769 5.11662 19.8769 5.11825 19.8769 5.11987H18.8769C18.8769 4.61667 18.7662 4.11681 18.5494 3.64827C18.3324 3.17952 18.0126 2.74977 17.6053 2.38522C17.1979 2.02058 16.7112 1.7288 16.172 1.52891C15.6327 1.329 15.0532 1.22559 14.4668 1.22559C13.8804 1.22559 13.3008 1.329 12.7615 1.52891C12.2223 1.7288 11.7357 2.02058 11.3282 2.38523C10.9209 2.74977 10.6011 3.17952 10.3842 3.64827C10.1673 4.11681 10.0566 4.61667 10.0566 5.11987H9.05664C9.05664 5.11825 9.05664 5.11662 9.05664 5.11499H2.86719C2.3149 5.11499 1.86719 5.56271 1.86719 6.11499V19.8425C1.86719 20.3948 2.3149 20.8425 2.86719 20.8425H26.5007C27.0529 20.8425 27.5007 20.3948 27.5007 19.8425V6.11499C27.5007 5.5627 27.0529 5.11499 26.5007 5.11499H19.8769Z" fill="currentColor"/>
<circle cx="14.4023" cy="11.6098" r="4.60544" stroke="currentColor"/>
<circle cx="23.679" cy="8.6768" r="0.586221" fill="currentColor" stroke="currentColor"/>
</svg>
