<!-- <svg
  xmlns="http://www.w3.org/2000/svg"
  viewBox="0 0 26 26"
  aria-labelledby="title"
  width="1em"
  height="1em"
  fill="currentColor"
  stroke-width="0"
>
  <title id="title">Measure Target</title>
  <path d="m9.5,26 2,-2 -1.5,-1.5 0.5,-0.5 1.5,1.5 1.5,-1.5 -2.5,-2.5 0.5,-0.5 2.5,2.5 1.5,-1.5 -1.5,-1.5 0.5,-0.5 1.5,1.5 1.5,-1.5 -2.5,-2.5 0.5,-0.5 2.5,2.5 1.5,-1.5 -1.5,-1.5 0.5,-0.5 1.5,1.5 1.5,-1.5 -2.5,-2.5 0.5,-0.5 2.5,2.5 1.5,-1.5 -1.5,-1.5 0.5,-0.5 1.5,1.5 2,-2 -4,-4 a2 2 0 0 0 -2.5 0 l-14 14 a2 2 0 0 0 0 2.5 l4,4 Z" />
  <path d="m6,0 a6 6 0 0 1 0 12 a6 6 0 0 1 0 -12 m0.5,3 a0.5 0.5 0 0 0 -1 0 l0,2.5 -2.5,0 a0.5 0.5 0 0 0 0 1 l2.5,0 0,2.5 a0.5 0.5 0 0 0 1 0 l0,-2.5 2.5,0 a0.5 0.5 0 0 0 0 -1 l-2.5,0 z" />
</svg>
 -->

<svg class="w-5 h-5 fill-current" xmlns="http://www.w3.org/2000/svg" viewBox="0 0 27 27"><g fill="none" fill-rule="evenodd" stroke="currentColor"><g stroke-linecap="round" stroke-linejoin="round"><path stroke-width="1" d="M21.729 1.664c.448 0 .895.171 1.237.513l1.819 1.817a1.75 1.75 0 0 1 .112 2.353l-18.8 18.81c-.37.37-.854.554-1.338.554-.485 0-.97-.185-1.339-.554L1.804 23.54a1.886 1.886 0 0 1-.554-1.339c0-.484.185-.968.554-1.338L20.492 2.177c.341-.342.79-.513 1.237-.513z"></path><path d="M6.145 20.914l1.571 1.563m.853-3.987l1.574 1.56m.85-3.984l1.572 1.561m.852-3.985l1.575 1.559m.849-3.984l1.566 1.57m.728-3.864l1.565 1.571m.859-3.995l1.566 1.57"></path></g><path stroke-width="1.5" d="M11.873 7.904L8.089 4.121a1 1 0 0 0-1.414 0L4.907 5.889a1 1 0 0 0 0 1.414l3.784 3.783M16 18.382l3.783 3.783c.391.39 1.024.39 1.415 0l1.767-1.767c.39-.39.39-1.024 0-1.415L19.182 15.2"></path></g></svg>
