<svg width="26" height="27" viewBox="0 0 26 27" fill="none" xmlns="http://www.w3.org/2000/svg">
<path d="M16.0124 9.3645H10.334" stroke="currentColor" stroke-linecap="round"/>
<path d="M20.4289 13.606H10.334" stroke="currentColor" stroke-linecap="round"/>
<path d="M4.65606 21.0113H5.15606V20.5113V1.72966C5.15606 1.67872 5.18625 1.58699 5.27398 1.49852C5.36197 1.40979 5.4511 1.38135 5.49731 1.38135H25.0562C25.1024 1.38135 25.1916 1.40979 25.2795 1.49852C25.3673 1.58698 25.3975 1.67872 25.3975 1.72966V21.665C25.3975 23.9378 23.7246 25.6187 21.4809 25.6187H21.2706H5.07668C2.83303 25.6187 1.16016 23.9378 1.16016 21.665V21.3596C1.16016 21.2342 1.18987 21.1734 1.20869 21.145C1.22945 21.1136 1.26037 21.0868 1.30588 21.0638C1.35345 21.0399 1.407 21.0254 1.45283 21.0177C1.47457 21.014 1.49157 21.0124 1.50117 21.0117L1.50747 21.0113H4.65606Z" stroke="currentColor"/>
<path d="M4.45042 25.5522C3.1747 25.4128 1.6382 24.3806 1.24533 22.6002L1.20999 21.5992C1.20001 21.3163 1.42663 21.0815 1.70968 21.0815H19.8541V22.4051C19.8541 23.6503 20.2011 24.7015 20.6228 25.5522H4.45042Z" stroke="black"/>
</svg>
