<svg width="30" height="30" viewBox="0 0 30 30" fill="none" xmlns="http://www.w3.org/2000/svg">
<title id="title">Reset</title>
<path d="M27.5305 8.42411C27.7962 8.49925 28.0725 8.34475 28.1477 8.07903L29.3721 3.74882C29.4473 3.48309 29.2928 3.20677 29.027 3.13163C28.7613 3.05649 28.485 3.21099 28.4099 3.47672L27.3214 7.32579L23.4724 6.23739C23.2067 6.16225 22.9303 6.31675 22.8552 6.58248C22.7801 6.8482 22.9346 7.12452 23.2003 7.19966L27.5305 8.42411ZM15.4385 28.2654C7.98263 28.2654 1.93848 22.2212 1.93848 14.7654H0.938477C0.938477 22.7735 7.43035 29.2654 15.4385 29.2654V28.2654ZM1.93848 14.7654C1.93848 7.30954 7.98263 1.26538 15.4385 1.26538V0.265381C7.43035 0.265381 0.938477 6.75725 0.938477 14.7654H1.93848ZM15.4385 1.26538C20.5051 1.26538 24.9205 4.05628 27.2301 8.18699L28.1029 7.69897C25.6238 3.26497 20.8818 0.265381 15.4385 0.265381V1.26538ZM27.4455 20.9429C25.2028 25.2927 20.6674 28.2654 15.4385 28.2654V29.2654C21.0562 29.2654 25.9269 26.0706 28.3343 21.4011L27.4455 20.9429Z"  fill="currentColor"/>
</svg>
