<svg width="34" height="33" viewBox="0 0 34 33" fill="none" xmlns="http://www.w3.org/2000/svg">
<title id="title">Rotate Right</title>
<rect x="9.88574" y="14.9551" width="23.1607" height="17.6602" rx="2" fill="currentColor"/>
<path d="M1.48926 10.3227L0.989823 10.2989L0.989258 10.3108V10.3227H1.48926ZM7.56872 3.95361V3.45361H7.55623L7.54375 3.45424L7.56872 3.95361ZM14.4085 4.30717C14.6037 4.1119 14.6037 3.79532 14.4085 3.60006L11.2265 0.418079C11.0312 0.222817 10.7146 0.222817 10.5194 0.418079C10.3241 0.613342 10.3241 0.929924 10.5194 1.12519L13.3478 3.95361L10.5194 6.78204C10.3241 6.9773 10.3241 7.29388 10.5194 7.48915C10.7146 7.68441 11.0312 7.68441 11.2265 7.48915L14.4085 4.30717ZM1.98926 17.2712V10.3227H0.989258V17.2712H1.98926ZM1.98869 10.3465C2.03328 9.40929 2.37262 7.97194 3.23597 6.75425C4.08536 5.55623 5.44604 4.56037 7.59369 4.45299L7.54375 3.45424C5.05923 3.57846 3.42839 4.75388 2.4202 6.17587C1.42596 7.57818 1.04165 9.20957 0.989823 10.2989L1.98869 10.3465ZM7.56872 4.45361H14.0549V3.45361H7.56872V4.45361Z" fill="currentColor"/>
</svg>
