

<svg width="46" height="28" viewBox="0 0 46 28" fill="none" xmlns="http://www.w3.org/2000/svg">
<title id="title">Settings</title>
<path d="M39.4845 17.2006C39.6717 17.3843 39.9338 17.3843 40.121 17.2006L45.6623 11.8358C45.8495 11.652 45.8495 11.3581 45.6623 11.2111L44.9135 10.4762C44.7637 10.2924 44.4642 10.2924 44.277 10.4762L39.8215 14.8121L35.3285 10.4762C35.1413 10.2924 34.8792 10.2924 34.692 10.4762L33.9431 11.2111C33.7559 11.3581 33.7559 11.652 33.9431 11.8358L39.4845 17.2006Z" fill="black"/>
<path d="M24.5104 12.7781L26.2505 11.7993C26.7399 11.5274 27.0118 10.9292 26.8486 10.3311C26.2505 8.04718 24.9998 5.98079 23.3684 4.29506C22.9334 3.91441 22.2809 3.80565 21.7914 4.07755L20.0513 5.11074C19.6163 4.78447 18.8006 4.29506 18.2568 4.07755V2.06554C18.2568 1.52175 17.8218 0.923591 17.278 0.814834C15.0485 0.21667 12.6015 0.21667 10.372 0.814834C9.77379 0.977969 9.39314 1.46738 9.39314 2.06554V4.07755C8.84936 4.29506 8.03368 4.78447 7.59865 5.11074L5.85854 4.07755C5.36913 3.80565 4.71659 3.91441 4.28156 4.29506C2.6502 5.98079 1.3995 8.04718 0.801333 10.3311C0.638198 10.9292 0.91009 11.5274 1.3995 11.7993L3.13961 12.7781C3.08523 13.1044 3.08523 13.5394 3.08523 13.8113C3.08523 14.1376 3.08523 14.5726 3.13961 14.8445L1.3995 15.8777C0.91009 16.1496 0.638198 16.7477 0.801333 17.3459C1.3995 19.6298 2.6502 21.6962 4.28156 23.3819C4.71659 23.7626 5.36913 23.8713 5.85854 23.5994L7.59865 22.5662C8.03368 22.8925 8.84936 23.3819 9.39314 23.5994V25.6114C9.39314 26.1552 9.82817 26.7534 10.372 26.8622C12.6015 27.4603 15.0485 27.4603 17.278 26.8622C17.8762 26.699 18.2568 26.2096 18.2568 25.6114V23.5994C18.8006 23.3819 19.6163 22.8925 20.0513 22.5662L21.7914 23.5994C22.2809 23.8713 22.9334 23.7626 23.3684 23.3819C24.9998 21.6962 26.2505 19.6298 26.8486 17.3459C27.0118 16.7477 26.7399 16.1496 26.2505 15.8777L24.5104 14.8445C24.5648 14.192 24.5648 13.485 24.5104 12.7781ZM21.6283 16.2583L24.021 17.6178C23.6947 18.5966 22.8246 20.0105 22.1721 20.7718L19.7794 19.4123C18.0393 20.8805 17.8218 21.0436 15.6467 21.8049V24.5783C15.1573 24.6326 14.3416 24.7414 13.8522 24.7414C13.3084 24.7414 12.4927 24.6326 12.0033 24.5783V21.8049C9.82817 21.0436 9.55628 20.8805 7.87054 19.4123L5.47789 20.7718C4.82535 20.0105 3.95529 18.5966 3.62902 17.6178L6.02167 16.2583C5.58664 13.9744 5.58664 13.7025 6.02167 11.4186L3.62902 10.0592C4.06405 8.91724 4.66221 7.82967 5.47789 6.90523L7.87054 8.26469C9.61066 6.79647 9.82817 6.63334 12.0033 5.87204V3.09873C12.4927 3.04435 13.3084 2.9356 13.8522 2.9356C14.3416 2.9356 15.1573 3.04435 15.6467 3.09873V5.87204C17.8218 6.63334 18.0937 6.79647 19.7794 8.26469L22.1721 6.90523C22.8246 7.66653 23.6947 9.08037 24.021 10.0592L21.6283 11.4186C22.0633 13.7025 22.0633 13.9744 21.6283 16.2583ZM13.8522 8.59096C10.9701 8.59096 8.63184 10.9836 8.63184 13.8113C8.63184 16.6934 10.9701 19.0316 13.8522 19.0316C16.6799 19.0316 19.0725 16.6934 19.0725 13.8113C19.0725 10.9836 16.6799 8.59096 13.8522 8.59096ZM13.8522 16.4215C12.384 16.4215 11.242 15.2795 11.242 13.8113C11.242 12.3975 12.384 11.2011 13.8522 11.2011C15.266 11.2011 16.4624 12.3975 16.4624 13.8113C16.4624 15.2795 15.266 16.4215 13.8522 16.4215Z" fill="black"/>
</svg>
